Coordinates
version=1
nRows=5
nColumns=40
inDegrees=yes

Units are S.I. units (second, meters, Newtons, ...)
Angles are in degrees.

endheader
time	pelvis_tilt	pelvis_list	pelvis_rotation	pelvis_tx	pelvis_ty	pelvis_tz	hip_flexion_r	hip_adduction_r	hip_rotation_r	knee_angle_r	knee_angle_r_beta	ankle_angle_r	subtalar_angle_r	mtp_angle_r	hip_flexion_l	hip_adduction_l	hip_rotation_l	knee_angle_l	knee_angle_l_beta	ankle_angle_l	subtalar_angle_l	mtp_angle_l	lumbar_extension	lumbar_bending	lumbar_rotation	arm_flex_r	arm_add_r	arm_rot_r	elbow_flex_r	pro_sup_r	wrist_flex_r	wrist_dev_r	arm_flex_l	arm_add_l	arm_rot_l	elbow_flex_l	pro_sup_l	wrist_flex_l	wrist_dev_l
      2.62000000	    -11.11617338	      1.61053358	      7.87531165	      0.97758838	      1.00279929	     -0.36501160	      5.24843630	     -1.09096088	     -2.91702888	     88.16686911	      1.53880216	    -16.13542129	      0.00000000	      0.00000000	     36.36903206	      9.80067568	     -0.54426638	     26.59038426	      0.46408975	     -7.53344400	      0.00000000	      0.00000000	     -2.04343652	     -2.95525176	      2.13734360	    -23.61833957	    -21.70921448	     -1.54430178	    101.31413003	     62.15538607	      0.00000000	      0.00000000	    -40.45424804	    -18.98137991	     -9.22413292	    118.57991182	     57.76215688	      0.00000000	      0.00000000
      2.63000000	    -11.16547387	      2.82034930	      8.13889558	      0.97560381	      0.99517577	     -0.36460736	      7.91406936	     -3.23767062	     -3.01904258	     93.19430662	      1.62654749	    -13.37072640	      0.00000000	      0.00000000	     37.20790271	     10.99828414	     -1.57463395	     32.94780683	      0.57504771	     -3.50216647	      0.00000000	      0.00000000	     -2.57583554	     -4.66657867	      0.90399155	    -23.92461881	    -21.03161905	     -1.37641868	     96.59379767	     62.18125104	      0.00000000	      0.00000000	    -38.37405934	    -19.33415887	     -8.43834498	    116.69888111	     57.68756101	      0.00000000	      0.00000000
      2.64000000	    -12.08957284	      3.16723732	      8.22744749	      0.97240774	      0.98658913	     -0.36427572	     12.16731015	     -4.62407400	     -2.82647339	     98.16163641	      1.71324375	    -10.89189085	      0.00000000	      0.00000000	     38.75655400	     11.40428556	     -2.23944314	     38.79926990	      0.67717501	      1.77720088	      0.00000000	      0.00000000	     -1.94979645	     -5.42808731	     -0.39537827	    -24.04188890	    -20.84115412	     -1.07330472	     92.75216454	     62.52843673	      0.00000000	      0.00000000	    -36.36171862	    -19.27888156	     -7.75948377	    115.33542279	     57.52837297	      0.00000000	      0.00000000
      2.65000000	    -11.54152346	      3.43437941	      8.50216328	      0.97004522	      0.98205799	     -0.36432216	     14.82179697	     -5.32692658	     -2.39639196	    101.79198748	      1.77660533	    -10.75299791	      0.00000000	      0.00000000	     36.93450295	     11.82467363	     -1.73907554	     41.00073073	      0.71559775	      2.92669285	      0.00000000	      0.00000000	     -3.25048065	     -5.63196506	     -2.07923021	    -24.60024214	    -20.79771025	     -0.90082859	     90.68237646	     62.52707048	      0.00000000	      0.00000000	    -34.07675274	    -18.84172078	     -7.45938124	    113.98766751	     57.44519456	      0.00000000	      0.00000000
      2.66000000	    -11.33259769	      4.27110304	      8.16003795	      0.96534599	      0.97787655	     -0.36420167	     18.42299839	     -7.33740713	     -1.68802155	    105.26194296	      1.83716748	     -9.32618395	      0.00000000	      0.00000000	     36.09545262	     12.81972930	     -0.52831942	     44.93050251	      0.78418520	      6.85864988	      0.00000000	      0.00000000	     -4.22209021	     -6.56568587	     -3.08198461	    -23.63060967	    -20.86462938	     -0.71614225	     86.73317388	     62.65374744	      0.00000000	      0.00000000	    -30.74610550	    -18.80989446	     -6.87134152	    111.05241823	     57.27484645	      0.00000000	      0.00000000
